<?xml version="1.0" standalone="no"?>
<!DOCTYPE svg PUBLIC "-//W3C//DTD SVG 20010904//EN"
 "http://www.w3.org/TR/2001/REC-SVG-20010904/DTD/svg10.dtd">
<svg version="1.0" xmlns="http://www.w3.org/2000/svg"
 width="32.000000pt" height="32.000000pt" viewBox="0 0 32.000000 32.000000"
 preserveAspectRatio="xMidYMid meet">

<g transform="translate(0.000000,32.000000) scale(0.100000,-0.100000)"
fill="#000000" stroke="none">
<path d="M91 293 c-71 -37 -100 -124 -66 -197 64 -135 266 -101 282 48 14 117
-113 203 -216 149z m109 -54 c0 -6 -9 -13 -20 -16 -23 -6 -27 -23 -5 -23 8 0
15 -7 15 -15 0 -8 -7 -15 -15 -15 -11 0 -15 -12 -15 -50 0 -43 -3 -50 -20 -50
-17 0 -20 7 -20 50 0 28 -4 50 -10 50 -5 0 -10 7 -10 15 0 8 5 15 10 15 6 0
10 6 10 13 0 7 5 18 12 25 15 15 68 16 68 1z"/>
</g>
</svg>
